<svg xmlns="http://www.w3.org/2000/svg" width="1344.564" height="352.861" viewBox="0 0 1344.564 352.861">
  <path id="Path_1" data-name="Path 1" d="M39.636,0V-307.129H83.215v129.492H229.309V-307.129h43.579V0H229.309V-145.056H83.215V0ZM469.409-28.638Q432.678,5.188,398.645,5.188q-28.015,0-46.484-17.535T333.691-56.653q0-36.938,31.024-56.757t89.13-19.818h9.546v-27.185q0-39.221-40.881-39.221-31.75,0-69.312,19.922v-33.826q41.3-16.809,77.82-16.809,37.561,0,55.408,17.12t17.847,52.814v102.1q0,35.071,21.582,35.071a54.278,54.278,0,0,0,7.886-.83l2.905,22.62a70.341,70.341,0,0,1-30.713,6.641Q477.295,5.188,469.409-28.638Zm-6.018-22.2v-58.313l-13.074-.415q-34.033,0-54.889,12.659T374.573-63.293a33.523,33.523,0,0,0,10.376,24.9,34.808,34.808,0,0,0,25.317,10.168Q435.791-28.223,463.391-50.842ZM587.9,0V-225.366h40.881v42.334q24.28-47.314,70.557-47.314a86.83,86.83,0,0,1,13.074,1.044v38.385a60.1,60.1,0,0,0-18.677-3.528q-38.806,0-64.954,46.021V0Zm318.75,0V-42.334Q881.718,5.188,831.433,5.188q-40.726,0-64.1-29.675t-23.375-81.14q0-56.238,26.493-90.479t69.712-34.241q40.1,0,66.491,30.713v-128.04h40.881V0Zm0-171.619q-31.806-28.015-60.284-28.015-28.064,0-43.448,23.45t-15.384,66.406q0,79.065,52.386,79.065,34.092,0,66.73-37.146ZM1029.3,0V-225.366h40.881V0Zm0-266.248v-40.881h40.881v40.881ZM1152.148,0V-327.673h40.881V-116l95.459-109.363h44.072l-91.315,105.238L1351.455,0h-52.382L1193.03-115.588V0Z" transform="translate(-29.636 337.673)" fill="none" stroke="#000" stroke-width="20" stroke-dasharray="5 0"/>
</svg>
