<svg xmlns="http://www.w3.org/2000/svg" width="1920.911" height="244.71" viewBox="0 0 1920.911 244.71"><path d="M0,928.1c91.989-.418,139.122-93.135,223.584-92.81,52.482.2,172.724,28.117,249.717,49.305,88.074,24.237,132.979,42.2,185.836,43.5,104.664,2.586,285.028-96.272,371.672-92.81,120.906,4.831,374.362,121.99,464.59,130.514,83.822,7.919,250.237-68.215,307.791-60.906q11.443,1.453,21.44,3.018c75.831,11.841,91.712,17.792,94.708,34.686,2.3,12.98-2.344,36.6,0,49.305-1.939,46.4,0,87.009,0,87.009H0Z" transform="translate(0.5 -834.703)" fill="#ff6f00" stroke="#000" stroke-width="1"/></svg>